<?xml version="1.0" encoding="UTF-8"?>
<!DOCTYPE svg PUBLIC "-//W3C//DTD SVG 1.1//EN" "http://www.w3.org/Graphics/SVG/1.1/DTD/svg11.dtd">
<!-- Creator: CorelDRAW 2018 (64 Bit Versão de avaliação) -->
<svg xmlns="http://www.w3.org/2000/svg" xml:space="preserve" width="33.1149mm" height="33.1149mm" version="1.1" shape-rendering="geometricPrecision" text-rendering="geometricPrecision" image-rendering="optimizeQuality" fill-rule="evenodd" clip-rule="evenodd"
viewBox="0 0 3178.71 3178.71"
 xmlns:xlink="http://www.w3.org/1999/xlink">
 <g id="Camada_x0020_1">
  <metadata id="CorelCorpID_0Corel-Layer"/>
  <path fill="#4B3AF3" stroke="black" stroke-width="7.31" stroke-miterlimit="22.9256" d="M1589.37 3.66c875.74,0 1585.68,709.94 1585.68,1585.71 0,875.74 -709.94,1585.68 -1585.68,1585.68 -875.77,0 -1585.71,-709.94 -1585.71,-1585.68 0,-875.77 709.94,-1585.71 1585.71,-1585.71zm0 122.57c808.09,0 1463.15,655.06 1463.15,1463.14 0,808.09 -655.06,1463.15 -1463.15,1463.15 -808.08,0 -1463.14,-655.06 -1463.14,-1463.15 0,-808.08 655.06,-1463.14 1463.14,-1463.14z"/>
  <path fill="#4FFDD7" stroke="black" stroke-width="7.31" stroke-miterlimit="22.9256" d="M1589.37 126.23c808.09,0 1463.15,655.06 1463.15,1463.14 0,808.09 -655.06,1463.15 -1463.15,1463.15 -808.08,0 -1463.14,-655.06 -1463.14,-1463.15 0,-808.08 655.06,-1463.14 1463.14,-1463.14zm-0.03 122.98c740.14,0 1340.16,600.02 1340.16,1340.16 0,740.15 -600.02,1340.13 -1340.16,1340.13 -740.15,0 -1340.13,-599.98 -1340.13,-1340.13 0,-740.14 599.98,-1340.16 1340.13,-1340.16z"/>
  <path fill="#FF7F39" stroke="black" stroke-width="7.31" stroke-miterlimit="22.9256" d="M1589.34 249.21c740.14,0 1340.16,600.02 1340.16,1340.16 0,724.25 -574.54,1314.16 -1292.66,1339.19l0 -143.65c648.45,-24.8 1166.49,-554.03 1166.49,-1203.41 0,-665.26 -543.52,-1204.5 -1213.96,-1204.5 -670.47,0 -1213.95,539.24 -1213.95,1204.5 0,649.38 517.96,1178.61 1166.49,1203.41l0 143.65c-718.16,-24.99 -1292.7,-614.91 -1292.7,-1339.19 0,-740.14 599.98,-1340.16 1340.13,-1340.16z"/>
  <path fill="#FD4F75" stroke="black" stroke-width="7.31" stroke-miterlimit="22.9256" d="M1589.37 376.99c670.42,0 1213.96,539.28 1213.96,1204.46 0,649.45 -518.02,1178.66 -1166.44,1203.46l0 390.1 -95.02 0 0 -390.1c-648.46,-24.79 -1166.44,-554.01 -1166.44,-1203.46 0,-665.17 543.5,-1204.46 1213.95,-1204.46zm47.52 105l0 2198.84c590.55,-24.69 1061.66,-507.43 1061.66,-1099.41 0,-591.95 -471.11,-1074.74 -1061.66,-1099.42zm-95.02 2198.84l0 -2198.84c-574.77,24.06 -1036.37,482.01 -1060.58,1052.32l923.54 0 0 94.23 -923.54 0c24.21,570.32 485.84,1028.23 1060.58,1052.28z"/>
 </g>
</svg>
